<svg viewBox="0 0 160 160" fill="none" xmlns="http://www.w3.org/2000/svg">
<path d="M139.38 39.7975C152.069 52.3865 172.044 106.65 145.551 126.213C116.974 147.314 88.2038 148.236 63.8046 149.773C57.7437 150.155 52.1128 150.103 47.8646 149.284C28.8479 145.614 14.2202 131.777 7.17323 116.284C0.130005 100.791 -0.437164 83.7537 0.196732 67.146C0.678635 54.6237 1.98349 41.579 9.58276 30.853C17.6639 19.4491 32.2954 12.0083 47.683 9.66011C63.0743 7.31194 83.3322 8.88695 97.8116 13.9092C117.14 20.613 126.746 27.264 139.38 39.7975Z" fill="#F1FAE1"/>
<g clip-path="url(#clip0_1162_24146)">
<path d="M80.4708 88.4424C80.784 88.1294 81.1101 87.8623 81.4845 87.6256C79.4444 83.9795 78.9834 79.9491 78.9375 77.5242C78.907 76.7813 79.0572 76.0358 79.3247 75.3513C74.3072 72.7483 68.9307 74.8297 66.4729 76.0943C67.4407 70.6924 70.4639 66.914 72.1627 65.1888C72.9955 64.3263 72.5193 62.8836 71.3299 62.6749C71.2993 62.6291 71.2254 62.6291 71.1949 62.6291C69.3178 62.3009 67.4127 63.1049 66.3251 64.6825C64.0176 68.0004 63.5847 72.8501 63.5847 76.0485C60.4265 74.4277 52.8188 71.7051 47.0984 78.3537C39.7123 86.9234 45.2213 104.91 50.0758 110.594C53.9038 115.057 61.4223 113.258 64.0889 112.439C64.7435 112.246 65.4286 112.246 66.0705 112.439C68.7804 113.258 76.2709 115.057 80.0836 110.594C81.1865 109.299 82.3173 107.396 83.331 105.091C79.6812 100.925 79.0114 95.3913 78.9375 92.3557C78.8942 90.8978 79.4596 89.4704 80.4708 88.4424ZM59.7999 103.544C59.7413 104.124 59.4433 104.661 58.9798 105.017C58.5774 105.315 58.1164 105.449 57.6096 105.449C56.8939 105.449 56.2699 105.136 55.8369 104.587C52.7093 100.495 49.6428 88.2948 53.4683 83.8319C53.8554 83.3561 54.4055 83.1042 55.0168 83.0737C55.5822 83.0431 56.1629 83.2238 56.6392 83.58C57.5332 84.3993 57.6376 85.8115 56.848 86.7478C54.9429 88.9793 56.848 98.5743 59.3644 101.892C59.7362 102.353 59.9145 102.933 59.7974 103.544H59.7999Z" fill="#1F7437"/>
<path d="M59.7134 72.2214C60.7627 72.486 61.7637 71.6743 61.7204 70.5955C61.6465 68.7737 61.2237 66.0486 59.5249 63.9545C57.8261 61.8604 55.2461 60.8834 53.476 60.4381C52.4292 60.1735 51.4282 60.9852 51.469 62.064C51.5403 63.8858 51.9656 66.6109 53.6644 68.705C55.3632 70.799 57.9458 71.7761 59.7134 72.2239V72.2214Z" fill="#1F7437"/>
<path d="M112.728 87.827C115.975 84.5828 116.449 79.5219 116.5 77.4101C116.513 76.8554 116.069 76.4126 115.514 76.4254C113.4 76.4737 108.334 76.9495 105.09 80.1937C103.533 81.7483 102.624 83.7203 102.084 85.5853L101.883 76.6595C102.01 76.718 102.151 76.7536 102.303 76.7485C104.417 76.6976 109.483 76.2244 112.728 72.9802C115.975 69.7361 116.449 64.6752 116.5 62.5633C116.513 62.0086 116.069 61.5659 115.514 61.5811C113.4 61.6295 108.334 62.1053 105.09 65.3495C103.185 67.2527 102.247 69.7742 101.779 71.965L101.639 65.726C103.225 63.805 105.352 60.5507 105.352 56.8281C105.352 52.2405 102.105 48.3272 100.645 46.8005C100.263 46.3985 99.6367 46.3985 99.2521 46.8005C97.7927 48.3272 94.5479 52.2431 94.5479 56.8281C94.5479 60.5507 96.6746 63.805 98.2613 65.726L98.1213 71.965C97.6501 69.7742 96.7154 67.2527 94.8103 65.3495C91.5629 62.1053 86.4971 61.632 84.3857 61.5811C83.8305 61.5684 83.3873 62.0112 83.4 62.5633C83.4484 64.6752 83.9247 69.7361 87.172 72.9802C90.4194 76.2244 95.4852 76.6976 97.5966 76.7485C97.7494 76.7511 97.8895 76.7154 98.0168 76.6595L97.8156 85.5828C97.2731 83.7177 96.3664 81.7458 94.8103 80.1911C91.5629 76.947 86.4971 76.4737 84.3857 76.4228C83.8305 76.4101 83.3873 76.8528 83.4 77.4075C83.4484 79.5194 83.9247 84.5803 87.172 87.8244C90.4194 91.0686 95.4852 91.5418 97.5966 91.5927C97.6272 91.5927 97.6526 91.58 97.6806 91.5775L97.5024 99.4678C96.9395 97.9029 96.099 96.3254 94.8077 95.0353C91.5604 91.7912 86.4945 91.3179 84.3831 91.267C83.8279 91.2543 83.3847 91.6971 83.3975 92.2517C83.4459 94.3636 83.9222 99.4245 87.1695 102.666C90.3073 105.801 95.1159 106.343 97.347 106.422L97.1483 112.274C97.1483 112.948 97.6832 113.495 98.3454 113.495H101.555C102.217 113.495 102.752 112.948 102.752 112.274L102.553 106.422C104.781 106.343 109.593 105.801 112.73 102.666C115.978 99.422 116.451 94.3611 116.502 92.2517C116.515 91.6971 116.072 91.2543 115.517 91.267C113.403 91.3154 108.337 91.7912 105.092 95.0353C103.801 96.3254 102.96 97.9029 102.398 99.4678L102.219 91.5775C102.247 91.5775 102.273 91.5927 102.303 91.5927C104.417 91.5444 109.483 91.0686 112.728 87.8244V87.827Z" fill="#1F7437"/>
</g>
<defs>
<clipPath id="clip0_1162_24146">
<rect width="73" height="67" fill="white" transform="translate(43.5 46.5)"/>
</clipPath>
</defs>
</svg>
