<!-- Generated by IcoMoon.io -->
<svg version="1.1" xmlns="http://www.w3.org/2000/svg" width="32" height="32" viewBox="0 0 32 32">
<title>benefits-plant</title>
<path d="M28.913 19.623c0.283-0.684-0.104-1.143-0.826-0.984-2.613 0.567-4.713 1.728-5.88 2.54-0.651 0.454-1.132 0.398-1.522-0.323-0.32-0.592-0.704-0.737-1.055-0.609s-0.672 0.531-0.864 1.034c-0.365 0.955-0.663 2.983-0.843 4.592-0.072 0.694 0.498 1.002 1.028 0.57 0.227-0.179 0.454-0.356 0.679-0.531 1.913-1.483 3.757-2.788 5.114-3.626-1.186 1.332-3.051 3.163-5.099 4.985l-0.015 0.013c-0.382 0.343-0.348 0.778 0 0.984 0.105 0.062 0.239 0.103 0.398 0.114 1.615 0.102 3.663 0.162 4.666-0.033 1.055-0.204 1.808-0.98 0.751-1.817-0.643-0.509-0.613-0.995-0.054-1.556 1.002-1.008 2.51-2.877 3.522-5.353zM25.884 10.899c0.584-0.542 0.527-1.554-0.128-2.26s-1.659-0.839-2.244-0.296c-0.584 0.542-0.527 1.554 0.128 2.26s1.659 0.839 2.244 0.297v-0.001zM22.719 17.587c0.69 0.398 1.64 0.044 2.121-0.79s0.311-1.833-0.381-2.231c-0.69-0.398-1.64-0.044-2.12 0.79s-0.311 1.834 0.381 2.231h-0.001zM17.47 18.739c0.893 0 1.683-0.443 2.161-1.121 0.304-0.431 0.482-0.955 0.482-1.523s-0.178-1.091-0.482-1.522c-0.105-0.149-0.226-0.287-0.358-0.412 0.123-0.028 0.242-0.063 0.358-0.106 1-0.376 1.713-1.343 1.713-2.475 0-1.133-0.712-2.099-1.713-2.475-0.116-0.043-0.236-0.080-0.358-0.106 0.133-0.124 0.253-0.262 0.358-0.411 0.303-0.431 0.482-0.955 0.482-1.522s-0.178-1.092-0.482-1.523c-0.348-0.494-0.862-0.863-1.46-1.027 0.319-0.436 0.507-0.974 0.506-1.555 0-1.17-0.759-2.162-1.811-2.51-0.261-0.086-0.541-0.134-0.831-0.134-0.457 0-0.887 0.116-1.262 0.321-0.822 0.448-1.381 1.32-1.381 2.323 0 0.581 0.188 1.119 0.506 1.555-0.599 0.164-1.111 0.534-1.459 1.027-0.303 0.431-0.482 0.955-0.482 1.522s0.178 1.092 0.482 1.522c0.105 0.149 0.226 0.287 0.358 0.411-0.123 0.028-0.242 0.063-0.358 0.106-1 0.376-1.713 1.343-1.713 2.475s0.712 2.099 1.713 2.475c0.116 0.043 0.236 0.080 0.358 0.106-0.133 0.124-0.253 0.262-0.358 0.412-0.303 0.431-0.482 0.955-0.482 1.522s0.178 1.092 0.482 1.523c0.479 0.678 1.268 1.121 2.161 1.121 0.059 0 0.116-0.002 0.174-0.006 0.201-0.013 0.396-0.049 0.582-0.104l-0.371 12.645c-0.011 0.28 0.122 0.418 0.426 0.414h1.248c0.082 0.001 0.151-0.008 0.208-0.027 0.157-0.052 0.227-0.181 0.218-0.387l-0.218-7.461-0.152-5.183c0.050 0.014 0.101 0.029 0.152 0.040 0.195 0.045 0.396 0.070 0.605 0.070v0.001zM15.687 13.388c-0.262 0.195-0.59 0.252-0.916 0.191-0.376-0.071-0.751-0.302-1.022-0.667-0.506-0.682-0.458-1.574 0.106-1.993 0.262-0.195 0.59-0.252 0.916-0.191 0.376 0.071 0.751 0.302 1.022 0.667 0.506 0.682 0.458 1.574-0.106 1.993zM15.949 8.912c-0.564-0.418-0.612-1.312-0.106-1.993 0.271-0.365 0.646-0.597 1.022-0.667 0.326-0.062 0.654-0.003 0.916 0.19 0.564 0.418 0.612 1.312 0.106 1.993-0.271 0.365-0.646 0.597-1.022 0.667-0.326 0.062-0.654 0.003-0.916-0.19zM12.437 20.247c-0.352-0.128-0.736 0.017-1.055 0.609-0.391 0.722-0.873 0.777-1.522 0.323-1.166-0.812-3.267-1.974-5.88-2.541-0.722-0.159-1.109 0.301-0.825 0.985 1.012 2.476 2.519 4.344 3.522 5.353 0.559 0.562 0.589 1.047-0.054 1.556-1.055 0.838-0.304 1.614 0.751 1.817 1.003 0.194 3.051 0.135 4.666 0.033 0.159-0.011 0.293-0.053 0.398-0.115 0.348-0.206 0.382-0.641 0-0.984l-0.015-0.013c-2.047-1.822-3.913-3.654-5.098-4.985 1.357 0.838 3.202 2.144 5.113 3.626 0.226 0.175 0.451 0.352 0.678 0.531 0.53 0.432 1.1 0.124 1.029-0.57-0.18-1.609-0.478-3.637-0.843-4.592-0.191-0.503-0.512-0.905-0.864-1.034l-0.001 0.001zM6.595 14.568c-0.641 0.475-0.694 1.487-0.121 2.26s1.558 1.016 2.197 0.54c0.641-0.475 0.694-1.488 0.121-2.261-0.574-0.774-1.557-1.016-2.197-0.54v0.001zM9.928 6.965c0.641-0.475 0.694-1.487 0.121-2.26-0.574-0.774-1.558-1.016-2.197-0.54-0.641 0.475-0.694 1.487-0.121 2.26s1.558 1.016 2.197 0.54zM6.435 11.488c0.963 0 1.744-0.646 1.744-1.443s-0.78-1.443-1.744-1.443c-0.964 0-1.744 0.646-1.744 1.443s0.78 1.443 1.744 1.443z"></path>
</svg>
