<svg width="160" height="160" viewBox="0 0 160 160" fill="none" xmlns="http://www.w3.org/2000/svg">
<path d="M140.096 120.897C152.785 108.308 172.044 52.1027 145.551 32.5395C116.974 11.4392 88.2038 10.5169 63.8045 8.97988C57.7436 8.59839 52.1128 8.65025 47.8646 9.46877C28.8479 13.1392 14.2202 26.9764 7.17326 42.4692C0.130035 57.962 -0.437134 74.9993 0.196747 91.6069C0.67865 104.129 1.98351 117.174 9.58279 127.9C17.664 139.304 32.2954 146.745 47.683 149.093C78.3724 153.775 112.941 146.824 135.447 125.441C136.921 124.04 138.449 122.531 140.096 120.897Z" fill="#F1FAE1"/>
<path d="M97.4373 75.7437C97.1362 75.1137 96.5386 74.7361 95.8391 74.7361H85.7792L91.4844 52.219C91.6257 51.6608 91.5261 51.142 91.1948 50.7157C90.8474 50.2687 90.3007 50 89.7332 50C89.2074 50 88.7418 50.2316 88.3874 50.6694L62.7896 82.3777C62.3495 82.9221 62.2661 83.6239 62.5672 84.2539C62.8637 84.8747 63.4776 85.2616 64.1678 85.2616H74.2254L68.5202 107.781C68.3789 108.339 68.4785 108.86 68.8121 109.284C69.1595 109.731 69.7039 109.998 70.2714 109.998C70.7972 109.998 71.2628 109.766 71.6172 109.326L97.2173 77.6177C97.6504 77.0826 97.7338 76.3622 97.4373 75.7414V75.7437Z" fill="#1F7437"/>
</svg>
