<!-- Generated by IcoMoon.io -->
<svg version="1.1" xmlns="http://www.w3.org/2000/svg" width="32" height="32" viewBox="0 0 32 32">
<title>benefits-goods-leaf</title>
<path fill="none" stroke-linejoin="miter" stroke-linecap="butt" stroke-miterlimit="4" stroke-width="1.1429" stroke="#000" d="M24.203 19.464c-1.633 2.828-4.159 4.804-6.453 5.976-1.146 0.585-2.219 0.962-3.072 1.145-0.427 0.092-0.787 0.132-1.066 0.13-0.294-0.002-0.436-0.049-0.48-0.075s-0.157-0.125-0.305-0.378c-0.141-0.24-0.286-0.572-0.42-0.988-0.268-0.831-0.479-1.948-0.545-3.233-0.132-2.573 0.316-5.748 1.949-8.576 1.637-2.835 4.337-5.099 6.815-6.56 1.236-0.729 2.398-1.246 3.318-1.532 0.461-0.143 0.846-0.224 1.14-0.249 0.146-0.012 0.259-0.010 0.341 0 0.080 0.010 0.111 0.025 0.113 0.027 0 0 0 0 0 0s0-0 0 0c0.002 0.001 0.031 0.021 0.080 0.085 0.050 0.066 0.108 0.162 0.171 0.295 0.125 0.267 0.248 0.641 0.355 1.112 0.212 0.94 0.345 2.205 0.332 3.639-0.026 2.876-0.637 6.347-2.273 9.182z"></path>
<path fill="none" stroke-linejoin="miter" stroke-linecap="round" stroke-miterlimit="4" stroke-width="1.1429" stroke="#000" d="M14.817 23.721l8.873-15.368"></path>
<path fill="none" stroke-linejoin="miter" stroke-linecap="butt" stroke-miterlimit="4" stroke-width="1.1429" stroke="#000" d="M10.181 13.618c0.501 1.395 0.395 2.884 0.058 4.071-0.168 0.592-0.389 1.090-0.603 1.448-0.107 0.179-0.207 0.312-0.29 0.401-0.054 0.058-0.089 0.085-0.103 0.095-0.018 0.001-0.061 0.003-0.14-0.007-0.121-0.016-0.283-0.055-0.479-0.125-0.393-0.139-0.881-0.383-1.387-0.732-1.016-0.701-2.046-1.781-2.548-3.176-0.504-1.403-0.448-3.051-0.154-4.404 0.146-0.672 0.345-1.249 0.546-1.662 0.101-0.208 0.195-0.36 0.273-0.461 0.027-0.035 0.049-0.059 0.064-0.074 0.021 0.002 0.053 0.006 0.096 0.016 0.124 0.027 0.294 0.085 0.504 0.181 0.418 0.191 0.938 0.509 1.479 0.934 1.088 0.856 2.181 2.091 2.685 3.494z"></path>
<path fill="none" stroke-linejoin="miter" stroke-linecap="round" stroke-miterlimit="4" stroke-width="1.1429" stroke="#000" d="M8.404 16.873l-1.547-4.302"></path>
</svg>
