<svg width="160" height="160" viewBox="0 0 160 160" fill="none" xmlns="http://www.w3.org/2000/svg">
<path d="M140.38 39.7975C153.069 52.3865 173.044 106.65 146.551 126.213C117.974 147.314 89.2038 148.236 64.8046 149.773C58.7437 150.155 53.1128 150.103 48.8646 149.284C29.8479 145.614 15.2202 131.777 8.17323 116.284C1.13 100.791 0.562836 83.7537 1.19673 67.146C1.67863 54.6237 2.98349 41.579 10.5828 30.853C18.6639 19.4491 33.2954 12.0083 48.683 9.66011C64.0743 7.31194 84.3322 8.88695 98.8116 13.9092C118.14 20.613 127.746 27.264 140.38 39.7975Z" fill="#F1FAE1"/>
<g clip-path="url(#clip0_1162_24134)">
<path fill-rule="evenodd" clip-rule="evenodd" d="M107.44 87.6988C108.042 86.2452 107.219 85.2691 105.684 85.6078C100.131 86.8121 95.6695 89.2794 93.1893 91.0058C91.807 91.9701 90.7843 91.8525 89.9545 90.319C89.275 89.0606 88.4593 88.7525 87.7117 89.0253C86.9641 89.2982 86.2847 90.1543 85.8757 91.2222C85.0999 93.252 84.4675 97.561 84.0843 100.981C83.9315 102.456 85.1422 103.109 86.2682 102.192C86.7502 101.811 87.2321 101.435 87.7117 101.063C91.7764 97.9114 95.6953 95.1383 98.5799 93.3578C96.0597 96.1874 92.0961 100.08 87.7446 103.951L87.7117 103.98C86.9006 104.709 86.9712 105.633 87.7117 106.071C87.935 106.202 88.2195 106.289 88.558 106.313C91.9903 106.529 96.3418 106.656 98.4741 106.242C100.717 105.81 102.315 104.161 100.07 102.38C98.7045 101.298 98.7679 100.266 99.9552 99.0733C102.085 96.9306 105.289 92.9603 107.44 87.6988ZM101.004 69.1599C102.245 68.0074 102.123 65.8576 100.731 64.357C99.3392 62.8564 97.2046 62.5741 95.9633 63.729C94.7221 64.8815 94.8443 67.0313 96.236 68.5319C97.6278 70.0325 99.7624 70.3147 101.004 69.1622V69.1599ZM94.2777 83.3734C95.7447 84.2201 97.7618 83.4674 98.7844 81.694C99.807 79.9205 99.445 77.799 97.9757 76.9522C96.5087 76.1055 94.4917 76.8582 93.4714 78.6316C92.4511 80.4051 92.8108 82.529 94.2801 83.3734H94.2777ZM83.1228 85.8195C85.0199 85.8195 86.6985 84.8787 87.714 83.4369C88.3605 82.5219 88.739 81.407 88.739 80.2004C88.739 78.9938 88.3605 77.8813 87.714 76.9664C87.4907 76.6488 87.2345 76.3572 86.9524 76.0914C87.2133 76.0326 87.4672 75.9573 87.714 75.8656C89.8393 75.0659 91.3532 73.0126 91.3532 70.6064C91.3532 68.1979 89.8393 66.1469 87.714 65.3472C87.4672 65.2555 87.2133 65.1779 86.9524 65.1214C87.2345 64.858 87.4907 64.564 87.714 64.2488C88.3582 63.3338 88.739 62.219 88.739 61.0147C88.739 59.8105 88.3605 58.6932 87.714 57.7783C86.9735 56.7293 85.8827 55.9437 84.6109 55.5956C85.2879 54.6689 85.6876 53.5258 85.6852 52.2909C85.6852 49.8048 84.0725 47.6974 81.8368 46.9565C81.282 46.773 80.6872 46.6719 80.0713 46.6719C79.1004 46.6719 78.1859 46.9188 77.3889 47.354C75.6422 48.3066 74.455 50.16 74.455 52.2909C74.455 53.5258 74.8547 54.6689 75.5294 55.5956C74.2575 55.9437 73.1691 56.7293 72.4285 57.7783C71.7844 58.6932 71.4036 59.8081 71.4036 61.0124C71.4036 62.2166 71.782 63.3338 72.4285 64.2464C72.6519 64.564 72.9081 64.8556 73.1902 65.119C72.9293 65.1779 72.6754 65.2531 72.4285 65.3448C70.3033 66.1445 68.7894 68.1979 68.7894 70.604C68.7894 73.0102 70.3033 75.0635 72.4285 75.8632C72.6754 75.955 72.9293 76.0326 73.1902 76.089C72.9081 76.3525 72.6519 76.6465 72.4285 76.964C71.7844 77.879 71.4036 78.9938 71.4036 80.1981C71.4036 81.4023 71.782 82.5196 72.4285 83.4345C73.4465 84.8763 75.1227 85.8171 77.0198 85.8171C77.1444 85.8171 77.2667 85.8124 77.3889 85.8054C77.8168 85.7772 78.2305 85.7019 78.6255 85.5843L77.8379 112.454C77.8144 113.049 78.0965 113.343 78.743 113.334H81.3948C81.5688 113.336 81.7146 113.317 81.8368 113.277C82.1706 113.167 82.3187 112.892 82.2999 112.454L81.8368 96.599L81.5147 85.5843C81.6205 85.6149 81.7287 85.6454 81.8368 85.669C82.2506 85.7654 82.6784 85.8171 83.1228 85.8171V85.8195ZM79.3355 74.4497C78.7783 74.8636 78.0824 74.9859 77.3889 74.8566C76.5896 74.706 75.7927 74.2145 75.2167 73.4383C74.1423 71.9894 74.2434 70.0936 75.4424 69.2022C75.9995 68.7883 76.6954 68.666 77.3889 68.7953C78.1882 68.9458 78.9852 69.4374 79.5612 70.2136C80.6355 71.6625 80.5344 73.5582 79.3355 74.4497ZM79.8926 64.9379C78.6937 64.0489 78.5926 62.1508 79.6669 60.7019C80.2429 59.9257 81.0399 59.4341 81.8392 59.2836C82.5327 59.1519 83.2285 59.2765 83.7857 59.6882C84.9847 60.5772 85.0857 62.4753 84.0114 63.9242C83.4354 64.7004 82.6385 65.192 81.8392 65.3425C81.1457 65.4742 80.4498 65.3496 79.8926 64.9379ZM72.4285 89.0253C71.681 88.7525 70.8652 89.0606 70.1858 90.319C69.3559 91.8525 68.3309 91.9701 66.951 91.0058C64.4731 89.2794 60.0088 86.8121 54.456 85.6055C52.9208 85.2668 52.1004 86.2452 52.7022 87.6988C54.8533 92.9603 58.0552 96.9306 60.1874 99.0733C61.3746 100.268 61.4381 101.298 60.0722 102.38C57.8295 104.161 59.4257 105.81 61.6685 106.242C63.8008 106.654 68.1523 106.529 71.5846 106.313C71.9231 106.289 72.2076 106.2 72.4309 106.068C73.1714 105.631 73.2419 104.707 72.4309 103.977L72.398 103.949C68.0488 100.078 64.0829 96.185 61.5651 93.3555C64.4496 95.136 68.3685 97.9114 72.4309 101.061C72.9105 101.432 73.3901 101.809 73.872 102.19C74.9981 103.107 76.2088 102.453 76.0583 100.978C75.6751 97.5586 75.0427 93.2496 74.2669 91.2198C73.8602 90.152 73.1785 89.2958 72.4309 89.023L72.4285 89.0253ZM60.0135 76.9569C58.6523 77.966 58.5395 80.1158 59.7572 81.7598C60.975 83.4039 63.0673 83.919 64.4261 82.9076C65.7873 81.8986 65.9001 79.7465 64.6823 78.1024C63.4622 76.4583 61.3746 75.9432 60.0135 76.9546V76.9569ZM67.0967 60.8007C68.4579 59.7916 68.5707 57.6419 67.353 55.9978C66.1328 54.3537 64.0429 53.8386 62.6841 54.85C61.3229 55.859 61.2101 58.0088 62.4278 59.6529C63.6456 61.297 65.7379 61.8121 67.0967 60.8007ZM59.6749 70.4112C61.7202 70.4112 63.38 69.0376 63.38 67.3441C63.38 65.6506 61.7226 64.277 59.6749 64.277C57.6273 64.277 55.9699 65.6506 55.9699 67.3441C55.9699 69.0376 57.6273 70.4112 59.6749 70.4112Z" fill="#1F7437"/>
</g>
<defs>
<clipPath id="clip0_1162_24134">
<rect width="55.1379" height="66.6667" fill="white" transform="translate(52.5 46.667)"/>
</clipPath>
</defs>
</svg>
