<!-- Generated by IcoMoon.io -->
<svg version="1.1" xmlns="http://www.w3.org/2000/svg" width="32" height="32" viewBox="0 0 32 32">
<title>benefits-lightning</title>
<path d="M25.3 13.73c-0.161-0.336-0.479-0.537-0.852-0.537h-5.365l3.043-12.009c0.075-0.298 0.022-0.574-0.154-0.802-0.185-0.238-0.477-0.382-0.78-0.382-0.28 0-0.529 0.124-0.718 0.357l-13.652 16.911c-0.235 0.29-0.279 0.665-0.119 1.001 0.158 0.331 0.486 0.537 0.854 0.537h5.364l-3.043 12.010c-0.075 0.298-0.022 0.576 0.156 0.802 0.185 0.238 0.476 0.38 0.778 0.38 0.28 0 0.529-0.124 0.718-0.358l13.653-16.911c0.231-0.285 0.275-0.67 0.117-1.001v0.001z"></path>
</svg>
