<!-- Generated by IcoMoon.io -->
<svg version="1.1" xmlns="http://www.w3.org/2000/svg" width="32" height="32" viewBox="0 0 32 32">
<title>benefits-vagetables</title>
<path d="M16.204 19.651c0.135-0.135 0.276-0.251 0.438-0.353-0.882-1.577-1.082-3.32-1.101-4.368-0.013-0.321 0.052-0.644 0.167-0.94-2.17-1.126-4.495-0.226-5.558 0.321 0.418-2.336 1.726-3.97 2.46-4.716 0.36-0.373 0.154-0.997-0.36-1.087-0.013-0.020-0.045-0.020-0.058-0.020-0.812-0.142-1.636 0.206-2.106 0.888-0.998 1.435-1.185 3.532-1.185 4.915-1.366-0.701-4.656-1.878-7.129 0.997-3.194 3.706-0.812 11.484 1.288 13.942 1.655 1.93 4.907 1.152 6.060 0.798 0.283-0.084 0.579-0.084 0.857 0 1.172 0.354 4.411 1.132 6.060-0.798 0.477-0.56 0.966-1.383 1.404-2.38-1.578-1.801-1.868-4.194-1.9-5.507-0.019-0.63 0.226-1.248 0.663-1.692zM7.265 26.181c-0.025 0.251-0.154 0.483-0.355 0.637-0.174 0.129-0.373 0.187-0.593 0.187-0.309 0-0.579-0.135-0.767-0.373-1.352-1.769-2.679-7.045-1.024-8.975 0.167-0.206 0.405-0.315 0.67-0.328 0.245-0.013 0.496 0.065 0.702 0.219 0.387 0.354 0.432 0.965 0.090 1.37-0.824 0.965 0 5.114 1.088 6.549 0.161 0.199 0.238 0.45 0.187 0.714h0.001z"></path>
<path d="M7.227 12.636c0.454 0.114 0.887-0.237 0.868-0.703-0.032-0.788-0.215-1.966-0.949-2.872s-1.85-1.328-2.616-1.521c-0.453-0.114-0.886 0.237-0.868 0.703 0.031 0.788 0.215 1.966 0.949 2.872s1.851 1.328 2.616 1.522v-0.001z"></path>
<path d="M30.153 19.385c1.404-1.403 1.609-3.591 1.631-4.505 0.006-0.24-0.186-0.431-0.426-0.426-0.914 0.021-3.105 0.227-4.508 1.63-0.673 0.672-1.066 1.525-1.3 2.331l-0.087-3.86c0.055 0.025 0.116 0.041 0.182 0.039 0.914-0.022 3.105-0.227 4.508-1.63 1.404-1.403 1.609-3.591 1.631-4.505 0.006-0.24-0.186-0.431-0.426-0.425-0.914 0.021-3.105 0.227-4.508 1.63-0.824 0.823-1.229 1.913-1.432 2.861l-0.061-2.698c0.686-0.831 1.606-2.238 1.606-3.848 0-1.984-1.404-3.676-2.035-4.336-0.165-0.174-0.436-0.174-0.602 0-0.631 0.66-2.034 2.354-2.034 4.336 0 1.61 0.92 3.017 1.606 3.848l-0.061 2.698c-0.204-0.947-0.608-2.038-1.432-2.861-1.404-1.403-3.595-1.608-4.508-1.63-0.24-0.005-0.432 0.186-0.426 0.425 0.021 0.913 0.227 3.102 1.631 4.505s3.595 1.608 4.508 1.63c0.066 0.001 0.127-0.014 0.182-0.039l-0.087 3.859c-0.235-0.807-0.627-1.659-1.3-2.332-1.404-1.403-3.595-1.608-4.508-1.63-0.24-0.005-0.432 0.186-0.426 0.426 0.021 0.913 0.227 3.102 1.631 4.505s3.595 1.608 4.508 1.63c0.013 0 0.024-0.006 0.036-0.007l-0.077 3.412c-0.243-0.677-0.607-1.359-1.165-1.917-1.404-1.403-3.595-1.608-4.508-1.63-0.24-0.006-0.432 0.186-0.426 0.426 0.021 0.913 0.227 3.102 1.631 4.504 1.357 1.356 3.436 1.59 4.401 1.624l-0.086 2.531c0 0.292 0.231 0.528 0.518 0.528h1.388c0.286 0 0.518-0.237 0.518-0.528l-0.086-2.531c0.964-0.034 3.044-0.268 4.401-1.624 1.404-1.403 1.609-3.591 1.631-4.504 0.006-0.24-0.186-0.431-0.426-0.426-0.914 0.021-3.105 0.227-4.508 1.63-0.558 0.558-0.922 1.24-1.165 1.917l-0.077-3.412c0.012 0 0.023 0.007 0.036 0.007 0.914-0.021 3.105-0.227 4.508-1.63v0.001z"></path>
</svg>
