<!-- Generated by IcoMoon.io -->
<svg version="1.1" xmlns="http://www.w3.org/2000/svg" width="32" height="32" viewBox="0 0 32 32">
<title>error</title>
<path d="M16.001 1.23c1.939 0 3.86 0.382 5.652 1.124s3.42 1.83 4.791 3.202c1.371 1.371 2.459 3 3.202 4.791s1.124 3.712 1.124 5.652c0 1.939-0.382 3.86-1.124 5.652s-1.83 3.42-3.202 4.791c-1.371 1.371-3 2.459-4.791 3.202s-3.712 1.124-5.652 1.124c-3.917 0-7.674-1.556-10.444-4.326s-4.326-6.526-4.326-10.443 1.556-7.674 4.326-10.443c2.77-2.77 6.526-4.326 10.444-4.326zM16.001 3.692c-3.264 0-6.395 1.297-8.703 3.605s-3.605 5.439-3.605 8.703c0 3.264 1.297 6.395 3.605 8.703s5.439 3.605 8.703 3.605c3.264 0 6.395-1.297 8.703-3.605s3.605-5.439 3.605-8.703c0-3.264-1.297-6.395-3.605-8.703s-5.439-3.605-8.703-3.605zM16.001 20.923c0.49 0 0.959 0.195 1.305 0.541s0.541 0.816 0.541 1.305-0.195 0.959-0.541 1.305c-0.346 0.346-0.816 0.541-1.305 0.541s-0.959-0.195-1.305-0.541c-0.346-0.346-0.541-0.816-0.541-1.305s0.195-0.959 0.541-1.305c0.346-0.346 0.816-0.541 1.305-0.541zM16.001 7.384c0.288-0 0.567 0.101 0.788 0.285s0.371 0.441 0.423 0.724l0.020 0.222v8.615c0.001 0.307-0.114 0.604-0.321 0.831s-0.492 0.369-0.798 0.397c-0.306 0.028-0.612-0.060-0.857-0.246s-0.411-0.457-0.466-0.76l-0.020-0.221v-8.615c0-0.326 0.13-0.639 0.36-0.87s0.544-0.36 0.87-0.36z"></path>
</svg>
