<!-- Generated by IcoMoon.io -->
<svg version="1.1" xmlns="http://www.w3.org/2000/svg" width="102" height="32" viewBox="0 0 102 32">
<title>GO-IT</title>
<path d="M102.401 0.8v30.4h-45.056v-30.4h45.056zM71.574 9.17v13.231c0 0.007 0 0.014 0 0.021s0 0.014 0 0.021c0.001 0.028 0.001 0.056-0.001 0.083-0.006 0.076 0.014 0.122 0.103 0.109 0.021-0.002 0.042-0.001 0.063-0.001 0.006 0 0.011 0 0.017 0s0.010 0 0.014 0c0.373 0 0.746 0 1.12 0 0.747 0 1.495 0.001 2.242-0 0.013 0 0.025 0 0.036 0 0.010 0 0.019 0 0.027 0 0.072 0.001 0.107 0.001 0.123-0.016s0.015-0.048 0.014-0.111c-0-0.021-0.001-0.045-0.001-0.074v-13.246l-0-0.014-0-0.017c-0.001-0.021-0.001-0.042 0.001-0.062 0.008-0.078-0.019-0.119-0.104-0.109-0.017 0.002-0.034 0.001-0.052 0.001-0.009-0-0.018-0.001-0.027-0.001-0.377 0-0.753-0-1.13-0h-0.001c-0.754-0-1.508-0.001-2.261 0-0.022 0-0.042-0-0.059-0.001-0.062-0.001-0.093-0.001-0.109 0.014s-0.015 0.047-0.014 0.11c0 0.018 0.001 0.038 0.001 0.061zM90.291 8.987h-5.608c-1.867 0-3.734 0-5.6-0.002-0.007 0-0.014 0-0.021 0s-0.015 0-0.022 0c-0.028 0-0.056 0.001-0.084-0-0.063-0.003-0.085 0.027-0.080 0.084 0.001 0.018 0.001 0.035 0 0.052-0 0.009-0 0.017-0 0.026v3.168l-0 0.033c-0 0.068-0 0.101 0.016 0.118s0.049 0.016 0.112 0.015c0.007-0 0.014-0 0.021-0s0.015-0 0.023-0h3.521c0.115 0 0.172 0 0.2 0.028s0.028 0.082 0.028 0.19v9.768c0 0.019-0 0.035-0 0.050-0.001 0.056-0.001 0.085 0.013 0.101 0.016 0.017 0.050 0.017 0.121 0.016l0.035-0h3.379c0.106 0 0.158 0 0.184-0.026s0.026-0.076 0.026-0.177v-9.768c0-0.021-0-0.040-0.001-0.056-0.001-0.060-0.001-0.092 0.014-0.108 0.017-0.018 0.053-0.017 0.127-0.017 0.014 0 0.030 0 0.047 0h3.584c0.155 0 0.155 0 0.156-0.151v-3.152c0-0.022 0-0.041 0-0.058 0.001-0.069 0.001-0.103-0.016-0.119s-0.050-0.016-0.117-0.015c-0.018 0-0.038 0.001-0.060 0.001z"></path>
<path d="M29.433 14.3c0.639-1.166 1.66-1.724 2.651-1.746 2.011-0.005 3.325 1.114 3.683 2.665 0.217 0.935 0.12 1.843-0.344 2.692-0.547 0.997-1.4 1.578-2.548 1.707-1.11 0.126-2.079-0.184-2.87-0.974-0.508-0.506-0.813-1.122-0.944-1.818-0.165-0.882-0.063-1.735 0.371-2.527z"></path>
<path d="M45.056 0.8l12.288 15.2-12.288 15.2h-45.056v-30.4h45.056zM19.921 13.779c0.068 0.055 0.137 0.11 0.207 0.165 0.046-0.028 0.075-0.066 0.102-0.102 0.006-0.008 0.012-0.017 0.019-0.025 0.244-0.287 0.487-0.576 0.729-0.865 0.487-0.576 0.972-1.152 1.457-1.729 0.097-0.116 0.094-0.169-0.017-0.262-0.087-0.075-0.176-0.148-0.266-0.222-0.771-0.624-1.617-1.111-2.577-1.394-0.641-0.187-1.295-0.29-1.961-0.336-0.869-0.058-1.73-0.030-2.583 0.165-2.987 0.68-5.217 3.127-5.478 6.264-0.070 0.846-0.003 1.684 0.216 2.506 0.498 1.862 1.579 3.288 3.297 4.228 0.936 0.512 1.949 0.782 3.014 0.866 0.902 0.072 1.795 0.017 2.677-0.18 1.49-0.332 2.808-1.004 3.98-1.963 0.094-0.076 0.132-0.153 0.132-0.275-0.004-1.493-0.004-2.987-0.003-4.48l0-1.121c0-0.019-0.001-0.039-0.003-0.059-0.003-0.044-0.006-0.087 0.006-0.127 0.014-0.046-0.011-0.073-0.036-0.099-0.020-0.021-0.040-0.042-0.037-0.073 0.006-0.052-0.029-0.059-0.070-0.059h-6.293c-0.012 0-0.024 0-0.037 0.001-0.025 0.001-0.050 0.001-0.074-0.001-0.064-0.006-0.084 0.025-0.079 0.083 0.002 0.024 0.001 0.049 0.001 0.073-0 0.012-0.001 0.024-0.001 0.036 0 0.328-0 0.655-0 0.983-0 0.655-0.001 1.311 0 1.966 0 0.027-0 0.051-0.001 0.071-0.001 0.060-0.002 0.091 0.013 0.107s0.050 0.016 0.12 0.015c0.017-0 0.037-0 0.059-0h2.489c0.022 0 0.041-0 0.059-0 0.069-0.001 0.102-0.001 0.118 0.015s0.015 0.046 0.014 0.105c-0 0.021-0.001 0.045-0.001 0.074 0.001 0.142 0.001 0.284 0 0.426-0 0.071-0 0.142-0 0.214v0.005c0 0.293 0 0.295-0.268 0.422-0.785 0.371-1.614 0.478-2.47 0.371-0.951-0.117-1.713-0.562-2.271-1.331-0.363-0.501-0.561-1.066-0.636-1.675-0.094-0.777 0.002-1.525 0.358-2.23 0.43-0.847 1.080-1.456 2.014-1.735 0.655-0.197 1.318-0.145 1.974-0.003 0.595 0.128 1.113 0.415 1.59 0.776 0.175 0.131 0.345 0.267 0.518 0.406zM37.533 10.947c-1.467-1.32-3.214-1.949-5.020-1.963-0.834 0.002-1.457 0.069-2.118 0.239-1.919 0.495-3.42 1.556-4.418 3.251-1.024 1.738-1.232 3.603-0.66 5.521 0.641 2.144 2.006 3.705 4.118 4.574 1.622 0.666 3.303 0.755 4.998 0.315 1.969-0.51 3.479-1.639 4.468-3.399 0.834-1.484 1.058-3.076 0.747-4.738-0.279-1.493-0.977-2.773-2.115-3.8z"></path>
</svg>
