<!-- Generated by IcoMoon.io -->
<svg version="1.1" xmlns="http://www.w3.org/2000/svg" width="32" height="32" viewBox="0 0 32 32">
<title>go-it-logo</title>
<path d="M31.754 11.323v9.354h-13.864v-9.354h13.864zM22.269 13.899v4.071c0 0.002 0 0.004 0 0.006s0 0.004 0 0.007c0 0.009 0 0.017-0 0.025-0.002 0.024 0.004 0.037 0.032 0.034 0.006-0.001 0.013-0 0.019-0 0.002 0 0.003 0 0.005 0s0.003 0 0.004 0c0.115 0 0.23 0 0.345 0 0.23 0 0.46 0 0.69-0 0.004 0 0.008 0 0.011 0s0.006 0 0.008 0c0.022 0 0.033 0 0.038-0.005s0.005-0.015 0.004-0.034c-0-0.006-0-0.014-0-0.023v-4.076l-0-0.004-0-0.005c-0-0.006-0-0.013 0-0.019 0.002-0.024-0.006-0.037-0.032-0.034-0.005 0.001-0.011 0-0.016 0-0.003-0-0.006-0-0.008-0-0.116 0-0.232-0-0.348-0h-0c-0.232-0-0.464-0-0.696 0-0.007 0-0.013-0-0.018-0-0.019-0-0.029-0-0.033 0.004s-0.005 0.014-0.004 0.034c0 0.005 0 0.012 0 0.019zM28.028 13.842h-1.726c-0.574 0-1.149 0-1.723-0-0.002 0-0.004 0-0.006 0s-0.004 0-0.007 0c-0.009 0-0.017 0-0.026-0-0.019-0.001-0.026 0.008-0.025 0.026 0 0.005 0 0.011 0 0.016-0 0.003-0 0.005-0 0.008v0.975l-0 0.010c-0 0.021-0 0.031 0.005 0.036s0.015 0.005 0.035 0.005c0.002 0 0.004-0 0.006-0s0.005-0 0.007-0h1.083c0.035 0 0.053 0 0.061 0.009s0.009 0.025 0.009 0.059v3.005c0 0.006-0 0.011-0 0.015-0 0.017-0 0.026 0.004 0.031s0.015 0.005 0.037 0.005l0.011-0h1.040c0.033 0 0.049 0 0.057-0.008s0.008-0.023 0.008-0.054v-3.005c0-0.006-0-0.012-0-0.017-0-0.019-0-0.028 0.004-0.033s0.016-0.005 0.039-0.005c0.004 0 0.009 0 0.014 0h1.103c0.048 0 0.048 0 0.048-0.047v-0.97c0-0.007 0-0.013 0-0.018 0-0.021 0-0.032-0.005-0.037s-0.015-0.005-0.036-0.005c-0.005 0-0.012 0-0.018 0z"></path>
<path d="M9.303 15.477c0.197-0.359 0.511-0.531 0.816-0.537 0.619-0.001 1.023 0.343 1.133 0.82 0.067 0.288 0.037 0.567-0.106 0.828-0.168 0.307-0.431 0.485-0.784 0.525-0.341 0.039-0.64-0.057-0.883-0.3-0.156-0.156-0.25-0.345-0.29-0.559-0.051-0.271-0.020-0.534 0.114-0.777z"></path>
<path d="M14.11 11.323l3.781 4.677-3.781 4.677h-13.863v-9.354h13.863zM6.376 15.316c0.021 0.017 0.042 0.034 0.064 0.051 0.014-0.009 0.023-0.020 0.031-0.031 0.002-0.003 0.004-0.005 0.006-0.008 0.075-0.088 0.15-0.177 0.224-0.266 0.15-0.177 0.299-0.354 0.448-0.532 0.030-0.036 0.029-0.052-0.005-0.081-0.027-0.023-0.054-0.046-0.082-0.068-0.237-0.192-0.498-0.342-0.793-0.429-0.197-0.058-0.399-0.089-0.604-0.103-0.267-0.018-0.532-0.009-0.795 0.051-0.919 0.209-1.605 0.962-1.686 1.927-0.021 0.26-0.001 0.518 0.066 0.771 0.153 0.573 0.486 1.012 1.014 1.301 0.288 0.158 0.6 0.241 0.927 0.267 0.278 0.022 0.552 0.005 0.824-0.055 0.459-0.102 0.864-0.309 1.225-0.604 0.029-0.024 0.041-0.047 0.041-0.085-0.001-0.459-0.001-0.919-0.001-1.379l0-0.345c0-0.006-0-0.012-0.001-0.018-0.001-0.013-0.002-0.027 0.002-0.039 0.004-0.014-0.003-0.022-0.011-0.030-0.006-0.007-0.012-0.013-0.011-0.023 0.002-0.016-0.009-0.018-0.021-0.018h-1.936c-0.004 0-0.007 0-0.011 0-0.008 0-0.015 0-0.023-0-0.020-0.002-0.026 0.008-0.024 0.025 0.001 0.007 0 0.015 0 0.023-0 0.004-0 0.007-0 0.011 0 0.101-0 0.202-0 0.303-0 0.202-0 0.403 0 0.605 0 0.008-0 0.016-0 0.022-0 0.018-0.001 0.028 0.004 0.033s0.015 0.005 0.037 0.005c0.005-0 0.011-0 0.018-0h0.766c0.007 0 0.013-0 0.018-0 0.021-0 0.032-0 0.036 0.005s0.005 0.014 0.004 0.032c-0 0.006-0 0.014-0 0.023 0 0.044 0 0.087 0 0.131-0 0.022-0 0.044-0 0.066v0.002c0 0.090 0 0.091-0.082 0.13-0.242 0.114-0.497 0.147-0.76 0.114-0.293-0.036-0.527-0.173-0.699-0.41-0.112-0.154-0.173-0.328-0.196-0.515-0.029-0.239 0-0.469 0.11-0.686 0.132-0.261 0.332-0.448 0.62-0.534 0.202-0.060 0.405-0.045 0.607-0.001 0.183 0.039 0.343 0.128 0.489 0.239 0.054 0.040 0.106 0.082 0.159 0.125zM11.795 14.445c-0.451-0.406-0.989-0.6-1.545-0.604-0.257 0-0.448 0.021-0.652 0.073-0.59 0.152-1.052 0.479-1.359 1-0.315 0.535-0.379 1.109-0.203 1.699 0.197 0.66 0.617 1.14 1.267 1.407 0.499 0.205 1.016 0.232 1.538 0.097 0.606-0.157 1.070-0.504 1.375-1.046 0.257-0.457 0.325-0.946 0.23-1.458-0.086-0.46-0.3-0.853-0.651-1.169z"></path>
</svg>
