<svg width="65" height="20" viewBox="0 0 65 20" fill="none" xmlns="http://www.w3.org/2000/svg">
<path fill-rule="evenodd" clip-rule="evenodd" d="M64.5009 0.5H36.3406V19.5H64.5009V0.5ZM45.2335 5.73151V14.0006C45.2335 14.005 45.2335 14.0093 45.2336 14.0137C45.2337 14.0181 45.2338 14.0226 45.2339 14.027C45.2343 14.0445 45.2348 14.0618 45.2335 14.0786C45.2295 14.1264 45.2424 14.1547 45.2976 14.1469C45.3108 14.1456 45.3239 14.146 45.3371 14.1465C45.3407 14.1466 45.3442 14.1467 45.3478 14.1468C45.3508 14.1469 45.3538 14.1469 45.3568 14.1469C45.59 14.1469 45.8232 14.147 46.0566 14.1471C46.5235 14.1473 46.9907 14.1476 47.4578 14.1469C47.4658 14.1469 47.4732 14.147 47.4802 14.147C47.4862 14.1471 47.4918 14.1471 47.4971 14.1472C47.542 14.1478 47.5638 14.148 47.5742 14.1374C47.5841 14.1272 47.5837 14.1073 47.5828 14.0683C47.5825 14.0552 47.5822 14.0399 47.5822 14.0221V5.74321L47.5821 5.73427L47.5818 5.7237C47.5813 5.7107 47.5809 5.69769 47.5822 5.68469C47.5871 5.63592 47.5704 5.61056 47.5171 5.61642C47.5066 5.61771 47.4956 5.61728 47.4846 5.61685C47.479 5.61664 47.4733 5.61642 47.4677 5.61642C47.2323 5.61642 46.9968 5.61631 46.7612 5.6162H46.7604C46.2892 5.61598 45.8179 5.61577 45.347 5.61642C45.333 5.61642 45.3207 5.61623 45.31 5.61607C45.2712 5.6155 45.2516 5.61521 45.242 5.62471C45.2322 5.63432 45.2325 5.65393 45.2331 5.69338C45.2333 5.70445 45.2335 5.71709 45.2335 5.73151ZM56.9317 5.6167H53.4268C52.2599 5.6167 51.0929 5.6167 49.927 5.61573C49.9227 5.61573 49.9184 5.61575 49.9141 5.61579C49.9096 5.61583 49.905 5.61589 49.9005 5.61594C49.883 5.61616 49.8658 5.61637 49.848 5.61573C49.8086 5.61377 49.7947 5.63231 49.7977 5.66839C49.7984 5.67941 49.7981 5.68999 49.7979 5.70071C49.7978 5.70612 49.7977 5.71161 49.7977 5.71716V7.69714L49.7976 7.71767C49.7974 7.76018 49.7973 7.78111 49.8078 7.79132C49.818 7.80121 49.8382 7.80103 49.878 7.80068C49.8821 7.80065 49.8865 7.80061 49.891 7.80058C49.8955 7.80055 49.9003 7.80053 49.9053 7.80053H52.106C52.1777 7.80053 52.2132 7.80053 52.2308 7.81811C52.2481 7.83534 52.2481 7.86947 52.2481 7.93708V14.0419C52.2481 14.0536 52.2479 14.064 52.2478 14.0732C52.2473 14.1083 52.247 14.1266 52.2561 14.1361C52.2661 14.1466 52.2874 14.1465 52.3319 14.1463L52.3537 14.1462H54.4655C54.5317 14.1462 54.5645 14.1462 54.5808 14.13C54.5968 14.114 54.5968 14.0823 54.5968 14.0194V7.91465C54.5968 7.90151 54.5966 7.88989 54.5964 7.87961C54.5959 7.84187 54.5956 7.82199 54.6053 7.81185C54.6159 7.80088 54.6383 7.80104 54.6849 7.80137C54.6937 7.80144 54.7035 7.8015 54.7142 7.8015H56.9544C57.0511 7.8015 57.0511 7.80151 57.0521 7.7069V5.73667C57.0521 5.72314 57.0522 5.71111 57.0524 5.70043C57.0529 5.65751 57.0532 5.6362 57.0425 5.62578C57.0321 5.61552 57.011 5.61581 56.9693 5.61638C56.9583 5.61653 56.9458 5.6167 56.9317 5.6167Z" fill="#F1FAE1"/>
<path d="M18.8959 8.93723C19.2953 8.20864 19.9335 7.85946 20.5529 7.8458C21.8095 7.84288 22.6311 8.54221 22.855 9.51172C22.9908 10.096 22.9303 10.6636 22.64 11.1942C22.2981 11.8175 21.7649 12.1803 21.0474 12.2613C20.3537 12.3403 19.7482 12.1462 19.2537 11.6526C18.9365 11.3366 18.7453 10.9513 18.664 10.5163C18.5609 9.96526 18.6244 9.43174 18.8959 8.93723Z" fill="#F1FAE1"/>
<path fill-rule="evenodd" clip-rule="evenodd" d="M28.66 0.5H0.5V19.5H28.66L36.34 10L28.66 0.5ZM12.9506 8.6116C12.9933 8.64586 13.0362 8.68034 13.0798 8.71489C13.1087 8.6975 13.1266 8.67369 13.1434 8.65126C13.1473 8.64604 13.1512 8.64086 13.1551 8.63589C13.3077 8.45642 13.4593 8.27598 13.611 8.09554C13.9152 7.73563 14.2185 7.37572 14.5217 7.01484C14.5822 6.94266 14.5802 6.9095 14.5108 6.85098C14.4563 6.80416 14.4008 6.75832 14.3443 6.71248C13.8627 6.32234 13.3335 6.01802 12.7339 5.84148C12.3335 5.72444 11.9243 5.66007 11.508 5.63178C10.965 5.59569 10.4268 5.61325 9.89366 5.73517C8.02658 6.16043 6.63321 7.68979 6.4697 9.65026C6.42609 10.1789 6.46771 10.7027 6.60447 11.2167C6.91565 12.3803 7.59153 13.2718 8.6648 13.8589C9.2495 14.1789 9.88276 14.3476 10.5487 14.4003C11.1126 14.4451 11.6706 14.411 12.2216 14.2881C13.1531 14.0803 13.9767 13.6609 14.709 13.0611C14.7675 13.0133 14.7913 12.9655 14.7913 12.8894C14.7889 11.9563 14.789 11.0226 14.7892 10.0892L14.7893 9.38887C14.7893 9.37674 14.7884 9.36443 14.7876 9.35213C14.7857 9.32486 14.7838 9.29767 14.7913 9.2728C14.8 9.24392 14.7842 9.22736 14.7689 9.21122C14.7563 9.19791 14.7439 9.1849 14.7457 9.16551C14.7496 9.13332 14.7278 9.12845 14.7021 9.12845H10.7687C10.7612 9.12845 10.7535 9.12866 10.7458 9.12887C10.7303 9.12931 10.7146 9.12975 10.6994 9.12845C10.6597 9.12454 10.6468 9.14405 10.6498 9.18014C10.6511 9.19513 10.6507 9.21056 10.6502 9.22584C10.65 9.23341 10.6498 9.24098 10.6498 9.24841C10.6498 9.45324 10.6497 9.65807 10.6496 9.86289C10.6494 10.2725 10.6491 10.6822 10.6498 11.0918C10.6498 11.1088 10.6495 11.1234 10.6492 11.1359C10.6484 11.1734 10.648 11.1927 10.6575 11.2025C10.6676 11.2128 10.6889 11.2126 10.7326 11.2121C10.7435 11.212 10.7558 11.2118 10.7697 11.2118H12.3256C12.3393 11.2118 12.3515 11.2117 12.3623 11.2115C12.4054 11.211 12.4263 11.2108 12.4363 11.221C12.4458 11.2307 12.4455 11.2497 12.4449 11.2866C12.4447 11.2996 12.4444 11.3149 12.4445 11.3328C12.4452 11.4218 12.445 11.5104 12.4448 11.5992C12.4446 11.6436 12.4445 11.6881 12.4445 11.7327V11.7359C12.4445 11.919 12.4445 11.9204 12.2771 11.9999C11.7865 12.232 11.2682 12.2984 10.7331 12.232C10.1384 12.1589 9.66275 11.8809 9.31392 11.4001C9.08697 11.087 8.96309 10.7339 8.91652 10.3535C8.85805 9.86777 8.91751 9.40057 9.14049 8.95971C9.40905 8.43009 9.81537 8.0497 10.3991 7.87511C10.8084 7.75221 11.2226 7.7844 11.6329 7.87316C12.0045 7.95314 12.3286 8.1326 12.6269 8.35791C12.7362 8.43967 12.8426 8.52498 12.9506 8.6116ZM23.958 6.84216C23.0413 6.017 21.9492 5.62394 20.8205 5.61516C20.2992 5.61613 19.9097 5.65807 19.4965 5.76439C18.2973 6.07358 17.3588 6.73682 16.7355 7.79606C16.0953 8.88261 15.9655 10.0482 16.3232 11.2469C16.7236 12.587 17.5769 13.5624 18.8969 14.1057C19.9107 14.5221 20.9612 14.5777 22.0206 14.3027C23.2514 13.9837 24.1949 13.2786 24.8133 12.1783C25.3345 11.2508 25.4743 10.2559 25.28 9.21716C25.1056 8.28374 24.6696 7.48394 23.958 6.84216Z" fill="#F1FAE1"/>
</svg>
