<!-- Generated by IcoMoon.io -->
<svg version="1.1" xmlns="http://www.w3.org/2000/svg" width="32" height="32" viewBox="0 0 32 32">
<title>softryzen-logo</title>
<path d="M1.523 13.697h3.207v0.686h-1.928l1.628 1.591c0.881 0.861 0.257 2.334-0.989 2.334h-3.204v-0.686h1.922l-1.627-1.592c-0.88-0.861-0.256-2.333 0.99-2.333zM2.802 14.383h-1.279c-0.62 0-0.931 0.733-0.493 1.162l1.628 1.593-0.496 0.484h1.279c0.621 0 0.932-0.733 0.493-1.162l-1.629-1.591 0.497-0.485z"></path>
<path d="M9.165 14.653c-0.016-0-0.889-0.001-0.905-0.001-0.164 0-0.311 0.015-0.441 0.046s-0.242 0.076-0.335 0.137c-0.094 0.058-0.165 0.132-0.214 0.221s-0.074 0.19-0.074 0.305c0 0.119 0.023 0.221 0.070 0.305 0.049 0.081 0.114 0.15 0.195 0.206 0.083 0.053 0.175 0.099 0.277 0.137 0.104 0.038 0.211 0.071 0.32 0.099s0.214 0.056 0.316 0.084c0.104 0.028 0.196 0.060 0.277 0.095 0.083 0.036 0.148 0.080 0.195 0.133 0.049 0.053 0.074 0.121 0.074 0.202 0 0.053-0.012 0.1-0.035 0.141s-0.056 0.076-0.098 0.107c-0.042 0.028-0.091 0.052-0.148 0.072-0.055 0.018-0.116 0.032-0.183 0.042-0.068 0.008-0.138 0.011-0.211 0.011-0.010 0-0.962-0-0.971-0v0.362c0.010 0 0.961 0 0.971 0 0.216 0 0.407-0.027 0.573-0.080 0.169-0.053 0.302-0.138 0.398-0.255 0.096-0.119 0.144-0.273 0.144-0.461 0-0.119-0.025-0.22-0.074-0.301-0.049-0.084-0.116-0.154-0.199-0.209-0.081-0.056-0.173-0.103-0.277-0.141-0.101-0.038-0.207-0.071-0.316-0.099-0.107-0.030-0.212-0.058-0.316-0.084-0.101-0.028-0.194-0.058-0.277-0.091-0.081-0.033-0.146-0.072-0.195-0.118-0.049-0.048-0.074-0.109-0.074-0.183 0-0.066 0.023-0.122 0.070-0.168 0.049-0.048 0.121-0.085 0.214-0.11 0.094-0.028 0.209-0.042 0.347-0.042 0.015 0 0.886 0 0.901 0.001v-0.362z"></path>
<path d="M11.254 17.356c-0.276 0-0.515-0.049-0.718-0.148-0.2-0.099-0.355-0.249-0.464-0.449-0.107-0.201-0.16-0.452-0.16-0.754 0-0.305 0.053-0.556 0.16-0.754 0.109-0.201 0.264-0.35 0.464-0.449 0.203-0.099 0.442-0.149 0.718-0.149 0.281 0 0.521 0.050 0.721 0.149s0.354 0.249 0.46 0.449c0.109 0.198 0.164 0.449 0.164 0.754 0 0.302-0.055 0.553-0.164 0.754-0.107 0.201-0.26 0.35-0.46 0.449s-0.441 0.148-0.721 0.148zM11.254 16.994c0.143 0 0.269-0.019 0.378-0.057 0.112-0.038 0.205-0.096 0.281-0.175 0.078-0.079 0.136-0.178 0.175-0.297 0.042-0.119 0.062-0.258 0.062-0.415v-0.084c0-0.162-0.021-0.303-0.062-0.423-0.039-0.119-0.097-0.218-0.175-0.297-0.075-0.079-0.169-0.137-0.281-0.175-0.109-0.038-0.235-0.057-0.378-0.057-0.14 0-0.266 0.019-0.378 0.057-0.109 0.038-0.203 0.096-0.281 0.175-0.075 0.079-0.133 0.178-0.172 0.297s-0.059 0.26-0.059 0.423v0.084c0 0.157 0.020 0.296 0.059 0.415s0.096 0.218 0.172 0.297c0.078 0.079 0.172 0.137 0.281 0.175 0.112 0.038 0.238 0.057 0.378 0.057z"></path>
<path d="M13.279 15.079v2.231h0.437v-1.112h1.334v-0.362h-1.334v-0.621c0-0.084 0.070-0.152 0.156-0.152h1.318v-0.366h-1.521c-0.216 0-0.39 0.171-0.39 0.381z"></path>
<path d="M16.493 17.31v-2.246h-0.885v-0.366h2.215v0.366h-0.893v2.246h-0.437z"></path>
<path d="M18.402 14.698v2.612h0.437v-1.009h0.928l0.507 1.009h0.476l-0.558-1.081c0.148-0.061 0.263-0.156 0.343-0.286s0.121-0.282 0.121-0.457c0-0.157-0.031-0.294-0.094-0.411-0.062-0.119-0.156-0.212-0.281-0.278s-0.282-0.099-0.472-0.099h-1.408zM19.774 15.943h-0.936v-0.88h0.936c0.096 0 0.177 0.017 0.242 0.050s0.114 0.081 0.148 0.145c0.034 0.061 0.051 0.136 0.051 0.225 0 0.145-0.039 0.258-0.117 0.339-0.075 0.081-0.183 0.122-0.324 0.122z"></path>
<path d="M22.076 17.31v-1.074l-1.041-1.538h0.499l0.764 1.158h0.020l0.756-1.158h0.48l-1.041 1.538v1.074h-0.437z"></path>
<path d="M23.889 17.101v0.209h2.211v-0.366h-1.572l1.537-2.037v-0.209h-2.075v0.366h1.427l-1.529 2.037z"></path>
<path d="M27.125 17.31c-0.215 0-0.39-0.171-0.39-0.381v-1.85c0-0.21 0.175-0.381 0.39-0.381h1.684v0.366h-1.482c-0.086 0-0.156 0.068-0.156 0.152v0.575h1.466v0.366h-1.466v0.636c0 0.084 0.070 0.152 0.156 0.152h1.505v0.366h-1.708z"></path>
<path d="M29.538 17.31v-2.612h0.421l1.369 1.854h0.019v-1.854h0.421v2.612h-0.406l-1.384-1.881h-0.019v1.881h-0.421z"></path>
</svg>
