<svg width="132" height="20" viewBox="0 0 132 20" fill="none" xmlns="http://www.w3.org/2000/svg">
<path fill-rule="evenodd" clip-rule="evenodd" d="M6.28277 0.5C1.14319 0.5 -1.43264 6.5699 2.19896 10.1234L8.90926 16.6895H0.979691V19.5205H14.197C19.3388 19.5205 21.9136 13.4462 18.2777 9.89398L11.5601 3.33106H19.5116V0.5H6.28277ZM11.5587 3.33106H6.28277C3.72353 3.33106 2.44091 6.35355 4.24925 8.12301L10.9646 14.694L8.91942 16.6895H14.197C16.7574 16.6895 18.0395 13.6648 16.229 11.896L9.51067 5.33235L11.5587 3.33106Z" fill="#F1FAE1"/>
<path d="M37.8039 4.44376C37.7388 4.44213 34.1377 4.44132 34.0718 4.44132C33.3962 4.44132 32.7903 4.50414 32.2541 4.62979C31.7179 4.75544 31.2568 4.94391 30.8707 5.19521C30.4847 5.43603 30.1898 5.73968 29.986 6.10616C29.7823 6.47263 29.6804 6.89146 29.6804 7.36264C29.6804 7.85476 29.7769 8.27359 29.9699 8.61912C30.1737 8.95419 30.4418 9.23689 30.7742 9.46725C31.1174 9.68713 31.4981 9.87561 31.9163 10.0327C32.3452 10.1897 32.7849 10.3258 33.2353 10.441C33.6857 10.5562 34.12 10.6714 34.5383 10.7866C34.9672 10.9017 35.3479 11.0326 35.6803 11.1792C36.0235 11.3258 36.2916 11.509 36.4846 11.7289C36.6884 11.9488 36.7903 12.2263 36.7903 12.5613C36.7903 12.7812 36.742 12.9749 36.6455 13.1425C36.549 13.31 36.4149 13.4566 36.2433 13.5822C36.0718 13.6974 35.868 13.7969 35.6321 13.8806C35.4069 13.9539 35.1549 14.0115 34.8761 14.0534C34.5972 14.0848 34.3077 14.1005 34.0074 14.1005C33.9656 14.1005 30.0412 14.1001 30 14.0993V15.5917C30.0415 15.5923 33.9658 15.5926 34.0074 15.5926C34.8975 15.5926 35.6857 15.4827 36.372 15.2628C37.0691 15.0429 37.616 14.6921 38.0128 14.2105C38.4096 13.7183 38.6079 13.0849 38.6079 12.31C38.6079 11.8179 38.5061 11.4043 38.3023 11.0693C38.0986 10.7237 37.8251 10.4358 37.4819 10.2054C37.1495 9.97508 36.7688 9.78137 36.3399 9.62431C35.9216 9.46725 35.4873 9.33113 35.0369 9.21595C34.5972 9.0903 34.1629 8.97513 33.734 8.87042C33.3158 8.75524 32.9351 8.62959 32.5919 8.49347C32.2595 8.35736 31.9914 8.19506 31.7876 8.00659C31.5839 7.80764 31.482 7.55635 31.482 7.2527C31.482 6.98046 31.5785 6.7501 31.7715 6.56163C31.9753 6.36269 32.2702 6.21086 32.6562 6.10616C33.0423 5.99098 33.5195 5.93339 34.0879 5.93339C34.149 5.93339 37.7446 5.9344 37.8039 5.93641V4.44376Z" fill="#F1FAE1"/>
<path fill-rule="evenodd" clip-rule="evenodd" d="M46.4247 15.5926C45.288 15.5926 44.3014 15.3884 43.4649 14.9801C42.6392 14.5717 42.0011 13.9539 41.5508 13.1268C41.1111 12.2996 40.8912 11.263 40.8912 10.017C40.8912 8.76048 41.1111 7.72388 41.5508 6.90717C42.0011 6.07998 42.6392 5.46221 43.4649 5.05385C44.3014 4.6455 45.288 4.44132 46.4247 4.44132C47.5829 4.44132 48.5748 4.6455 49.4006 5.05385C50.2263 5.46221 50.859 6.07998 51.2987 6.90717C51.7491 7.72388 51.9743 8.76048 51.9743 10.017C51.9743 11.263 51.7491 12.2996 51.2987 13.1268C50.859 13.9539 50.2263 14.5717 49.4006 14.9801C48.5748 15.3884 47.5829 15.5926 46.4247 15.5926ZM46.4247 14.1005C47.0145 14.1005 47.5346 14.022 47.985 13.8649C48.4461 13.7079 48.8322 13.4671 49.1432 13.1425C49.4649 12.8179 49.7062 12.4095 49.867 11.9174C50.0386 11.4253 50.1244 10.8546 50.1244 10.2054V9.8599C50.1244 9.18978 50.0386 8.60865 49.867 8.11653C49.7062 7.62441 49.4649 7.21605 49.1432 6.89146C48.8322 6.56687 48.4461 6.32604 47.985 6.16898C47.5346 6.01192 47.0145 5.93339 46.4247 5.93339C45.8456 5.93339 45.3255 6.01192 44.8644 6.16898C44.414 6.32604 44.0279 6.56687 43.7062 6.89146C43.3952 7.21605 43.1593 7.62441 42.9985 8.11653C42.8376 8.60865 42.7572 9.18978 42.7572 9.8599V10.2054C42.7572 10.8546 42.8376 11.4253 42.9985 11.9174C43.1593 12.4095 43.3952 12.8179 43.7062 13.1425C44.0279 13.4671 44.414 13.7079 44.8644 13.8649C45.3255 14.022 45.8456 14.1005 46.4247 14.1005Z" fill="#F1FAE1"/>
<path d="M54.7754 6.20145V15.4041H56.577V10.8179H62.0783V9.32585H56.577V6.7662C56.577 6.41899 56.8652 6.13752 57.2208 6.13752H62.6573V4.62974H56.385C55.496 4.62974 54.7754 5.33342 54.7754 6.20145Z" fill="#F1FAE1"/>
<path d="M68.0355 15.4041V6.13752H64.384V4.62974H73.5207V6.13752H69.8371V15.4041H68.0355Z" fill="#F1FAE1"/>
<path fill-rule="evenodd" clip-rule="evenodd" d="M75.9064 4.62974V15.4041H77.708V11.242H81.5364L83.6275 15.4041H85.59L83.2897 10.9436C83.901 10.6923 84.3728 10.2996 84.7053 9.76562C85.0377 9.23161 85.2039 8.60337 85.2039 7.88089C85.2039 7.23171 85.0752 6.66629 84.8179 6.18464C84.5605 5.69252 84.1744 5.31034 83.6597 5.0381C83.145 4.76586 82.4962 4.62974 81.7133 4.62974H75.9064ZM81.5686 9.76562H77.708V6.13752H81.5686C81.9653 6.13752 82.2978 6.20558 82.5659 6.3417C82.834 6.47782 83.0377 6.67676 83.1771 6.93853C83.3165 7.18983 83.3862 7.49871 83.3862 7.86519C83.3862 8.46202 83.2254 8.92796 82.9037 9.26302C82.5927 9.59809 82.1476 9.76562 81.5686 9.76562Z" fill="#F1FAE1"/>
<path d="M91.0617 15.4041V10.975L86.7668 4.62974H88.8258L91.9786 9.40438H92.059L95.1796 4.62974H97.1582L92.8633 10.975V15.4041H91.0617Z" fill="#F1FAE1"/>
<path d="M98.542 14.5403V15.4041H107.663V13.8963H101.18L107.518 5.49358V4.62974H98.9602V6.13752H104.848L98.542 14.5403Z" fill="#F1FAE1"/>
<path d="M111.89 15.4041C111.001 15.4041 110.281 14.7004 110.281 13.8324V6.20145C110.281 5.33342 111.001 4.62974 111.89 4.62974H118.838V6.13752H112.726C112.371 6.13752 112.082 6.41899 112.082 6.7662V9.13738H118.131V10.6452H112.082V13.2676C112.082 13.6148 112.371 13.8963 112.726 13.8963H118.935V15.4041H111.89Z" fill="#F1FAE1"/>
<path d="M121.844 15.4041V4.62974H123.581L129.227 12.2786H129.307V4.62974H131.045V15.4041H129.372L123.661 7.6453H123.581V15.4041H121.844Z" fill="#F1FAE1"/>
</svg>
