<!-- Generated by IcoMoon.io -->
<svg version="1.1" xmlns="http://www.w3.org/2000/svg" width="210" height="32" viewBox="0 0 210 32">
<title>Softryzen</title>
<path d="M9.252 0.8h21.166v4.53h-12.722l10.748 10.501c5.817 5.684 1.698 15.402-6.529 15.402h-21.148v-4.53h12.687l-10.736-10.506c-5.811-5.686-1.689-15.397 6.534-15.397zM17.694 5.33h-8.441c-4.095 0-6.147 4.836-3.254 7.667l10.745 10.514-3.272 3.193h8.444c4.097 0 6.148-4.84 3.251-7.67l-10.749-10.502 3.277-3.202z"></path>
<path d="M59.686 7.11c-0.104-0.003-5.866-0.004-5.971-0.004-1.081 0-2.050 0.101-2.908 0.302s-1.596 0.503-2.213 0.905c-0.618 0.385-1.089 0.871-1.416 1.458s-0.489 1.256-0.489 2.010c0 0.787 0.154 1.458 0.463 2.010 0.326 0.536 0.755 0.988 1.287 1.357 0.549 0.352 1.158 0.653 1.827 0.905 0.686 0.251 1.39 0.469 2.11 0.653s1.416 0.369 2.085 0.553c0.686 0.184 1.295 0.394 1.827 0.628 0.549 0.235 0.978 0.528 1.287 0.88 0.326 0.352 0.489 0.796 0.489 1.332 0 0.352-0.077 0.662-0.232 0.93s-0.369 0.503-0.644 0.704c-0.274 0.184-0.6 0.344-0.978 0.477-0.36 0.117-0.764 0.209-1.21 0.276-0.446 0.050-0.909 0.075-1.39 0.075-0.067 0-6.346-0.001-6.412-0.002v2.388c0.066 0.001 6.345 0.001 6.412 0.001 1.424 0 2.685-0.176 3.783-0.528 1.115-0.352 1.99-0.913 2.625-1.684 0.635-0.788 0.952-1.801 0.952-3.041 0-0.787-0.163-1.449-0.489-1.985-0.326-0.553-0.764-1.014-1.313-1.382-0.532-0.368-1.141-0.678-1.827-0.93-0.669-0.251-1.364-0.469-2.085-0.653-0.704-0.201-1.398-0.385-2.085-0.553-0.669-0.184-1.278-0.385-1.827-0.603-0.532-0.218-0.961-0.477-1.287-0.779-0.326-0.318-0.489-0.72-0.489-1.206 0-0.436 0.154-0.804 0.463-1.106 0.326-0.318 0.798-0.561 1.416-0.729 0.618-0.184 1.381-0.276 2.291-0.276 0.098 0 5.851 0.002 5.946 0.005v-2.388z"></path>
<path d="M73.48 24.948c-1.819 0-3.397-0.327-4.736-0.98-1.321-0.653-2.342-1.642-3.063-2.965-0.704-1.324-1.055-2.982-1.055-4.976 0-2.010 0.352-3.669 1.055-4.976 0.72-1.323 1.741-2.312 3.063-2.965 1.338-0.653 2.917-0.98 4.736-0.98 1.853 0 3.44 0.327 4.761 0.98s2.333 1.642 3.037 2.965c0.721 1.307 1.081 2.965 1.081 4.976 0 1.994-0.36 3.652-1.081 4.976-0.704 1.323-1.716 2.312-3.037 2.965s-2.908 0.98-4.761 0.98zM73.48 22.561c0.944 0 1.776-0.126 2.496-0.377 0.738-0.251 1.356-0.636 1.853-1.156 0.515-0.519 0.901-1.173 1.158-1.96 0.275-0.787 0.412-1.7 0.412-2.739v-0.553c0-1.072-0.137-2.002-0.412-2.789-0.257-0.787-0.643-1.441-1.158-1.96-0.498-0.519-1.115-0.905-1.853-1.156-0.721-0.251-1.553-0.377-2.496-0.377-0.927 0-1.759 0.126-2.496 0.377-0.721 0.251-1.338 0.637-1.853 1.156-0.498 0.519-0.875 1.173-1.132 1.96s-0.386 1.717-0.386 2.789v0.553c0 1.039 0.129 1.952 0.386 2.739s0.635 1.441 1.132 1.96c0.515 0.519 1.132 0.905 1.853 1.156 0.738 0.251 1.57 0.377 2.496 0.377z"></path>
<path d="M86.841 9.922v14.724h2.883v-7.338h8.802v-2.387h-8.802v-4.095c0-0.556 0.461-1.006 1.030-1.006h8.698v-2.412h-10.036c-1.422 0-2.575 1.126-2.575 2.515z"></path>
<path d="M108.057 24.647v-14.827h-5.842v-2.412h14.619v2.412h-5.894v14.827h-2.883z"></path>
<path d="M120.65 7.408v17.239h2.883v-6.659h6.125l3.346 6.659h3.14l-3.68-7.137c0.978-0.402 1.733-1.030 2.265-1.885s0.798-1.86 0.798-3.016c0-1.039-0.206-1.943-0.618-2.714-0.412-0.787-1.030-1.399-1.853-1.834s-1.862-0.653-3.114-0.653h-9.291zM129.71 15.625h-6.177v-5.805h6.177c0.635 0 1.167 0.109 1.596 0.327s0.755 0.536 0.978 0.955c0.223 0.402 0.335 0.896 0.335 1.483 0 0.955-0.257 1.7-0.772 2.237-0.498 0.536-1.21 0.804-2.136 0.804z"></path>
<path d="M144.899 24.647v-7.087l-6.872-10.152h3.294l5.044 7.639h0.129l4.993-7.639h3.166l-6.872 10.152v7.087h-2.883z"></path>
<path d="M156.867 23.264v1.382h14.594v-2.412h-10.373l10.141-13.444v-1.382h-13.692v2.412h9.42l-10.090 13.444z"></path>
<path d="M178.224 24.647c-1.422 0-2.574-1.126-2.574-2.515v-12.21c0-1.389 1.152-2.515 2.574-2.515h11.117v2.412h-9.779c-0.568 0-1.030 0.45-1.030 1.006v3.794h9.678v2.412h-9.678v4.196c0 0.556 0.462 1.006 1.030 1.006h9.934v2.412h-11.272z"></path>
<path d="M194.15 24.647v-17.239h2.779l9.034 12.238h0.128v-12.238h2.781v17.239h-2.677l-9.138-12.414h-0.128v12.414h-2.779z"></path>
</svg>
