<svg viewBox="0 0 24 24" fill="none" xmlns="http://www.w3.org/2000/svg">
<path d="M11.9572 19.7162C16.2418 19.7162 19.7152 16.2428 19.7152 11.9582C19.7152 7.67358 16.2418 4.2002 11.9572 4.2002C7.6726 4.2002 4.19922 7.67358 4.19922 11.9582C4.19922 16.2428 7.6726 19.7162 11.9572 19.7162Z" fill="#1F7437"/>
<path d="M7.52489 11.7884C7.52489 11.7884 11.3678 10.1535 12.7006 9.57781C13.2115 9.34755 14.9442 8.61067 14.9442 8.61067C14.9442 8.61067 15.7439 8.28831 15.6772 9.07121C15.655 9.3936 15.4773 10.5219 15.2996 11.7424C15.033 13.4694 14.7442 15.3576 14.7442 15.3576C14.7442 15.3576 14.6998 15.8872 14.3222 15.9793C13.9446 16.0714 13.3226 15.657 13.2115 15.5648C13.1226 15.4958 11.5455 14.4595 10.968 13.9529C10.8125 13.8148 10.6348 13.5385 10.9902 13.2161C11.7899 12.4562 12.745 11.5121 13.3226 10.9134C13.5891 10.6371 13.8557 9.9923 12.745 10.7752C11.1679 11.9035 9.61295 12.9628 9.61295 12.9628C9.61295 12.9628 9.25753 13.1931 8.59113 12.9858C7.92471 12.7786 7.14724 12.5022 7.14724 12.5022C7.14724 12.5022 6.61415 12.1568 7.52489 11.7884Z" fill="white"/>
</svg>
