<svg width="9" height="8" viewBox="0 0 9 8" fill="none" xmlns="http://www.w3.org/2000/svg">
<path d="M0.524893 3.7884C0.524893 3.7884 4.36781 2.1535 5.7006 1.57781C6.21152 1.34755 7.94416 0.610666 7.94416 0.610666C7.94416 0.610666 8.74386 0.288306 8.6772 1.07121C8.65498 1.3936 8.47728 2.52191 8.29958 3.74235C8.03301 5.46939 7.74423 7.3576 7.74423 7.3576C7.74423 7.3576 7.69981 7.88724 7.32219 7.97934C6.94457 8.07144 6.32257 7.65698 6.21152 7.56484C6.12264 7.49578 4.54551 6.45955 3.96797 5.95295C3.81247 5.8148 3.63477 5.53849 3.99016 5.21609C4.78986 4.4562 5.74502 3.5121 6.32257 2.9134C6.58914 2.63706 6.85569 1.9923 5.74502 2.77521C4.16789 3.90355 2.61295 4.9628 2.61295 4.9628C2.61295 4.9628 2.25753 5.19305 1.59113 4.98581C0.924711 4.77859 0.147241 4.50225 0.147241 4.50225C0.147241 4.50225 -0.385849 4.15685 0.524893 3.7884Z" fill="white"/>
</svg>
