<!-- Generated by IcoMoon.io -->
<svg version="1.1" xmlns="http://www.w3.org/2000/svg" width="36" height="32" viewBox="0 0 36 32">
<title>Vector-1</title>
<path d="M2.1 15.154c0 0 15.372-6.54 20.703-8.842 2.044-0.921 8.974-3.869 8.974-3.869s3.199-1.289 2.932 1.842c-0.089 1.29-0.8 5.803-1.51 10.685-1.066 6.908-2.221 14.461-2.221 14.461s-0.178 2.119-1.688 2.487c-1.51 0.368-3.998-1.289-4.443-1.658-0.356-0.276-6.664-4.421-8.974-6.448-0.622-0.553-1.333-1.658 0.089-2.947 3.199-3.040 7.019-6.816 9.33-9.211 1.066-1.105 2.132-3.684-2.31-0.553-6.309 4.513-12.528 8.75-12.528 8.75s-1.422 0.921-4.087 0.092c-2.666-0.829-5.776-1.934-5.776-1.934s-2.132-1.382 1.511-2.855z"></path>
</svg>
