<?xml version="1.0" standalone="no"?>
<!DOCTYPE svg PUBLIC "-//W3C//DTD SVG 20010904//EN"
 "http://www.w3.org/TR/2001/REC-SVG-20010904/DTD/svg10.dtd">
<svg version="1.0" xmlns="http://www.w3.org/2000/svg"
 width="256.000000pt" height="256.000000pt" viewBox="0 0 256.000000 256.000000"
 preserveAspectRatio="xMidYMid meet">
<metadata>
Created by potrace 1.14, written by Peter Selinger 2001-2017
</metadata>
<g transform="translate(0.000000,256.000000) scale(0.100000,-0.100000)"
fill="#000000" stroke="none">
<path d="M1150 2555 c-8 -2 -49 -9 -90 -16 -41 -7 -77 -13 -80 -14 -34 -9 -98
-27 -110 -32 -8 -3 -19 -7 -25 -9 -58 -19 -85 -30 -85 -36 0 -5 -6 -8 -14 -8
-21 0 -130 -64 -220 -128 -263 -190 -453 -497 -509 -822 -14 -80 -16 -343 -4
-395 2 -11 8 -40 13 -65 4 -25 8 -47 9 -50 1 -3 5 -18 9 -35 4 -16 10 -37 13
-45 3 -8 7 -19 8 -25 6 -24 47 -120 76 -177 180 -357 546 -622 939 -681 93
-14 347 -16 400 -3 14 4 41 9 60 12 66 11 225 66 305 107 358 179 602 495 687
887 23 108 32 337 17 435 -39 245 -135 462 -286 643 -59 70 -76 88 -164 163
-156 133 -365 234 -571 275 -72 14 -335 27 -378 19z"/>
</g>
</svg>
