<svg width="28" height="28" viewBox="0 0 28 28" fill="none" xmlns="http://www.w3.org/2000/svg">
<path d="M21.1777 17.0314C19.7488 19.5062 17.5389 21.2349 15.5314 22.26C14.5286 22.7721 13.5901 23.1015 12.8433 23.2615C12.4693 23.3416 12.1548 23.3768 11.911 23.3755C11.654 23.3741 11.5294 23.3322 11.4908 23.3099C11.4522 23.2877 11.3537 23.2007 11.224 22.9788C11.101 22.7684 10.9742 22.4784 10.8566 22.1144C10.6218 21.3877 10.4377 20.4102 10.3798 19.2857C10.2639 17.0346 10.656 14.2564 12.0848 11.7816C13.5168 9.30125 15.8798 7.31994 18.0477 6.04196C19.1293 5.40435 20.1457 4.95179 20.9509 4.70146C21.3546 4.57596 21.6914 4.50564 21.9488 4.48375C22.077 4.47283 22.1757 4.47483 22.2474 4.4839C22.3173 4.49273 22.3447 4.50615 22.3466 4.50709C22.3467 4.50714 22.3467 4.50715 22.3466 4.50712C22.3466 4.50709 22.3466 4.5071 22.3467 4.50717C22.3485 4.50836 22.3738 4.52534 22.4164 4.58147C22.4601 4.63904 22.5112 4.72348 22.5658 4.84001C22.6755 5.07383 22.783 5.40066 22.8762 5.81303C23.062 6.63552 23.1783 7.74201 23.1669 8.99753C23.1441 11.514 22.6097 14.551 21.1777 17.0314Z" stroke="#1C6C33"/>
<path d="M12.9648 20.7559L20.7284 7.30902" stroke="#1C6C33" stroke-linecap="round"/>
<path d="M8.90832 11.9161C9.34711 13.1366 9.25409 14.4393 8.95886 15.4784C8.81178 15.9961 8.61879 16.4326 8.43113 16.7452C8.33707 16.9018 8.2497 17.0183 8.17712 17.0963C8.12992 17.147 8.0993 17.1703 8.08675 17.1792C8.07141 17.1803 8.03297 17.1818 7.96429 17.1728C7.85868 17.1589 7.71711 17.1247 7.54485 17.0638C7.20117 16.9423 6.77439 16.7286 6.33135 16.423C5.44204 15.8097 4.5409 14.8645 4.10211 13.644C3.66083 12.4166 3.71046 10.9746 3.96733 9.79074C4.09497 9.20246 4.26956 8.69815 4.44472 8.33645C4.53269 8.1548 4.61508 8.02104 4.6836 7.9334C4.70767 7.90262 4.72646 7.88208 4.7396 7.86891C4.75811 7.87071 4.78568 7.87457 4.82384 7.88298C4.93248 7.90693 5.08117 7.95761 5.26467 8.04167C5.63004 8.20904 6.08577 8.48674 6.55877 8.85909C7.51063 9.6084 8.46704 10.6887 8.90832 11.9161Z" stroke="#1C6C33"/>
<path d="M7.35352 14.7637L6.00026 10.9995" stroke="#1C6C33" stroke-linecap="round"/>
</svg>
