<svg width="24" height="24" viewBox="0 0 24 24" fill="none" xmlns="http://www.w3.org/2000/svg">
<g clip-path="url(#clip0_1162_11744)">
<path d="M12.0008 0.922852C13.4554 0.922852 14.8958 1.20936 16.2397 1.76603C17.5836 2.3227 18.8047 3.13862 19.8333 4.16721C20.8619 5.19579 21.6778 6.41691 22.2345 7.76082C22.7912 9.10473 23.0777 10.5451 23.0777 11.9998C23.0777 13.4544 22.7912 14.8948 22.2345 16.2387C21.6778 17.5826 20.8619 18.8038 19.8333 19.8323C18.8047 20.8609 17.5836 21.6768 16.2397 22.2335C14.8958 22.7902 13.4554 23.0767 12.0008 23.0767C9.06297 23.0767 6.24551 21.9097 4.16818 19.8323C2.09086 17.755 0.923828 14.9376 0.923828 11.9998C0.923828 9.06199 2.09086 6.24453 4.16818 4.16721C6.24551 2.08988 9.06297 0.922852 12.0008 0.922852ZM12.0008 2.76901C9.5526 2.76901 7.20472 3.74153 5.47361 5.47264C3.74251 7.20374 2.76998 9.55162 2.76998 11.9998C2.76998 14.4479 3.74251 16.7958 5.47361 18.5269C7.20472 20.258 9.5526 21.2305 12.0008 21.2305C14.4489 21.2305 16.7968 20.258 18.5279 18.5269C20.259 16.7958 21.2315 14.4479 21.2315 11.9998C21.2315 9.55162 20.259 7.20374 18.5279 5.47264C16.7968 3.74153 14.4489 2.76901 12.0008 2.76901ZM12.0008 15.6921C12.368 15.6921 12.7202 15.838 12.9798 16.0976C13.2395 16.3573 13.3854 16.7095 13.3854 17.0767C13.3854 17.4439 13.2395 17.7961 12.9798 18.0558C12.7202 18.3154 12.368 18.4613 12.0008 18.4613C11.6335 18.4613 11.2813 18.3154 11.0217 18.0558C10.762 17.7961 10.6161 17.4439 10.6161 17.0767C10.6161 16.7095 10.762 16.3573 11.0217 16.0976C11.2813 15.838 11.6335 15.6921 12.0008 15.6921ZM12.0008 5.53824C12.2168 5.53816 12.426 5.61388 12.592 5.75219C12.758 5.8905 12.8702 6.08264 12.9091 6.29516L12.9238 6.46131V12.9229C12.9243 13.1535 12.8383 13.376 12.6829 13.5465C12.5275 13.7169 12.3139 13.823 12.0842 13.8439C11.8544 13.8647 11.6252 13.7988 11.4417 13.6591C11.2581 13.5194 11.1335 13.316 11.0924 13.089L11.0777 12.9229V6.46131C11.0777 6.2165 11.1749 5.98171 11.348 5.8086C11.5211 5.63549 11.7559 5.53824 12.0008 5.53824Z" fill="#FF0000"/>
</g>
<defs>
<clipPath id="clip0_1162_11744">
<rect width="24" height="24" fill="white"/>
</clipPath>
</defs>
</svg>
